<?xml version="1.0" ?><svg id="Layer_1" style="enable-background:new 0 0 66 66;" version="1.1" viewBox="0 0 66 66" xml:space="preserve" xmlns="http://www.w3.org/2000/svg" xmlns:xlink="http://www.w3.org/1999/xlink"><g><path d="M64.3,21.1c-0.6-0.7-1.4-1.2-2.4-1.3c-1.3-0.1-2.7,0.5-3.3,1.7c0,0,0,0.1,0,0.1L54.1,32c0,0-0.1-0.1-0.1-0.1   c-1.2-1-2.9-1-4.1-0.1l-5,4.1c-3.1,0.4-5.5,2.7-6,5.8c0,0,0,0.1,0,0.1l-0.4,5.5l-0.7-0.3c-0.5-0.2-1.1,0-1.3,0.6l-3.2,8   c-0.2,0.5,0,1.1,0.6,1.3c0.5,0.2,1.1,0,1.3-0.6l2.8-7l0.8,0.3c0.2,0.1,0.3,0.2,0.5,0.2c0,0,0,0,0,0L49.8,54l-2.8,7   c-0.2,0.5,0,1.1,0.6,1.3c0.1,0,0.2,0.1,0.4,0.1c0.4,0,0.8-0.2,0.9-0.6l3.2-8c0.2-0.5,0-1.1-0.6-1.3l-0.8-0.3l2.4-2.7   c6.4-7.3,10.5-16.2,11.9-25.8C65.1,22.8,64.9,21.9,64.3,21.1z M63,23.5c-1.3,9.2-5.3,17.7-11.4,24.7l-2.9,3.3l-8.3-3.3l0.4-6.1   c0.4-2.2,2.3-3.9,4.5-4.1c0.2,0,0.4-0.1,0.6-0.2l5.3-4.3c0.4-0.4,1.1-0.3,1.5,0c0.5,0.4,0.5,1.1,0.1,1.6l-5.6,6.4   c-0.4,0.4-0.3,1,0.1,1.4c0.4,0.4,1,0.3,1.4-0.1l5.6-6.4c0.3-0.3,0.4-0.6,0.6-0.9c0,0,0.1-0.1,0.1-0.1l5.4-12.7   c0.3-0.5,0.8-0.7,1.4-0.7c0.4,0,0.7,0.2,1,0.5C62.9,22.7,63,23.1,63,23.5z"/><path d="M29.5,47.6c-0.1-0.2-0.3-0.4-0.5-0.5c-0.2-0.1-0.5-0.1-0.8,0l-0.7,0.3l-0.4-5.5c0,0,0-0.1,0-0.1c-0.5-3.1-3-5.4-6-5.8   l-5-4.1c-1.2-1-2.9-1-4.1,0.1c-0.1,0-0.1,0.1-0.1,0.1L7.5,21.7c0,0,0-0.1,0-0.1c-0.7-1.2-2-1.9-3.3-1.7c-0.9,0.1-1.8,0.6-2.4,1.3   c-0.6,0.7-0.8,1.7-0.7,2.6c1.4,9.6,5.5,18.5,11.9,25.8l2.4,2.7l-0.8,0.3c-0.5,0.2-0.8,0.8-0.6,1.3l3.2,8c0.2,0.4,0.5,0.6,0.9,0.6   c0.1,0,0.2,0,0.4-0.1c0.5-0.2,0.8-0.8,0.6-1.3l-2.8-7l10.5-4.2c0,0,0,0,0,0c0.2,0,0.4-0.1,0.5-0.2l0.8-0.3l2.8,7   c0.2,0.5,0.8,0.8,1.3,0.6c0.5-0.2,0.8-0.8,0.6-1.3L29.5,47.6z M14.4,48.2C8.3,41.2,4.4,32.6,3,23.5c-0.1-0.4,0-0.8,0.3-1.1   c0.2-0.3,0.6-0.5,1-0.5c0.5-0.1,1.1,0.2,1.4,0.7l5.4,12.7c0,0.1,0.1,0.1,0.1,0.1c0.1,0.3,0.3,0.7,0.6,0.9l5.6,6.4   c0.4,0.4,1,0.5,1.4,0.1c0.4-0.4,0.5-1,0.1-1.4l-5.6-6.4c-0.4-0.5-0.4-1.2,0.1-1.6c0.4-0.4,1-0.4,1.5,0l5.3,4.3   c0.2,0.1,0.4,0.2,0.6,0.2c2.3,0.2,4.1,1.9,4.5,4.1l0.4,6.1l-8.3,3.3L14.4,48.2z"/><path d="M27.6,53.1c-0.2-0.5-0.8-0.8-1.3-0.6c-0.5,0.2-0.8,0.8-0.6,1.3l0.8,2.1c0.2,0.4,0.5,0.6,0.9,0.6c0.1,0,0.2,0,0.4-0.1   c0.5-0.2,0.8-0.8,0.6-1.3L27.6,53.1z"/><path d="M39.7,52.6c-0.5-0.2-1.1,0.1-1.3,0.6l-0.7,2.1c-0.2,0.5,0.1,1.1,0.6,1.3c0.1,0,0.2,0.1,0.3,0.1c0.4,0,0.8-0.3,0.9-0.7   l0.7-2.1C40.5,53.3,40.2,52.7,39.7,52.6z"/><path d="M33.6,36.8C33.4,36.9,33.2,37,33,37c-0.1,0-0.3,0-0.4-0.1c-0.1,0-0.1-0.1-0.2-0.1c-13.2-10.5-19.1-18.4-18-24.2   c0-0.1,0.1-0.1,0.1-0.2c0.7-5,5-8.8,10.1-8.8C28,3.6,31.1,5.3,33,8c1.9-2.8,5-4.5,8.5-4.5c5.1,0,9.4,3.8,10.1,8.8   c0,0.1,0.1,0.1,0.1,0.2C52.7,18.3,46.8,26.3,33.6,36.8z"/></g></svg>